<svg xmlns="http://www.w3.org/2000/svg" width="1469.461" height="1466.461" viewBox="0 0 1469.461 1466.461">
  <g id="Group_1" data-name="Group 1" transform="translate(-283.153 428.847)">
    <path id="Path_1" data-name="Path 1" d="M398.637-61.947A340,340,0,0,1,639.053-302.363L1026.78-406.254a339.991,339.991,0,0,1,328.41,88L1639.03-34.421a340,340,0,0,1,87.99,328.415L1623.13,681.718a339.979,339.979,0,0,1-240.41,240.416L994.994,1026.02a339.991,339.991,0,0,1-328.415-87.994L382.745,654.192a340,340,0,0,1-88-328.415Z" fill="rgba(45,45,45,0.15)"/>
    <path id="Path_2" data-name="Path 2" d="M412.637-72.947A340,340,0,0,1,653.053-313.363L1040.78-417.254a339.991,339.991,0,0,1,328.41,88L1653.03-45.421a340,340,0,0,1,87.99,328.415L1637.13,670.718a339.979,339.979,0,0,1-240.41,240.416L1008.99,1015.02a339.987,339.987,0,0,1-328.411-87.994L396.745,643.192a340,340,0,0,1-88-328.415Z" fill="#fcbf49"/>
  </g>
</svg>
