<svg xmlns="http://www.w3.org/2000/svg" xmlns:xlink="http://www.w3.org/1999/xlink" width="798.681" height="647.009" viewBox="0 0 798.681 647.009">
  <defs>
    <clipPath id="clip-path">
      <rect id="Rectangle_1" data-name="Rectangle 1" width="798.681" height="647.009" fill="#fff"/>
    </clipPath>
  </defs>
  <g id="Group_1" data-name="Group 1" clip-path="url(#clip-path)">
    <path id="Path_1" data-name="Path 1" d="M126.832,0,74.02,103.009H84.681v84H30.953L0,247.381,383.53,444.017,510.363,196.636Z" fill="#f2f2f2"/>
    <path id="Path_2" data-name="Path 2" d="M703.681,67.008h-588v295h588Z" fill="#3f3d56"/>
    <path id="Path_3" data-name="Path 3" d="M632.181,173.009h-434v1h434Z" fill="#ffe607" opacity="0.3"/>
    <path id="Path_4" data-name="Path 4" d="M632.681,198.009h-434v1h434Z" fill="#ffe607" opacity="0.3"/>
    <path id="Path_5" data-name="Path 5" d="M632.681,248.009h-434v1h434Z" fill="#ffe607" opacity="0.3"/>
    <path id="Path_6" data-name="Path 6" d="M632.681,270.009h-434v1h434Z" fill="#ffe607" opacity="0.3"/>
    <path id="Path_7" data-name="Path 7" d="M632.681,223.009h-434v1h434Z" fill="#ffe607" opacity="0.3"/>
    <path id="Path_8" data-name="Path 8" d="M566.681,647.009c102.725,0,186-7.612,186-17s-83.275-17-186-17-186,7.611-186,17S463.956,647.009,566.681,647.009Z" fill="#3f3d56"/>
    <path id="Path_9" data-name="Path 9" d="M210.722,270.733l-1.38-1.448,64.6-61.573,56.946,40.962,46.051-51.056,20.193,17.164,54.929-32.958,61.014,41.009,95.761-54.469.988,1.738-96.837,55.082L452,184.193l-55.071,33.042L377.124,200.4l-45.949,50.944L274.121,210.3Z" fill="#ffe607"/>
    <path id="Path_10" data-name="Path 10" d="M396.757,595.846c4.7,17.374,20.8,28.134,20.8,28.134s8.478-17.408,3.778-34.782-20.8-28.134-20.8-28.134S392.057,578.473,396.757,595.846Z" fill="#3f3d56"/>
    <path id="Path_11" data-name="Path 11" d="M403.663,592.113c12.9,12.554,14.472,31.853,14.472,31.853s-19.335-1.055-32.231-13.61S371.432,578.5,371.432,578.5,390.766,579.558,403.663,592.113Z" fill="#ffe607"/>
    <path id="Path_12" data-name="Path 12" d="M765.181,87.008a33.5,33.5,0,1,0-33.5-33.5A33.5,33.5,0,0,0,765.181,87.008Z" fill="#ffe607" opacity="0.4"/>
    <path id="Path_13" data-name="Path 13" d="M703.181,93.008a23.5,23.5,0,1,0-23.5-23.5A23.5,23.5,0,0,0,703.181,93.008Z" fill="#ffe607" opacity="0.4"/>
    <path id="Path_14" data-name="Path 14" d="M674.181,513.009a12.5,12.5,0,1,0-12.5-12.5A12.5,12.5,0,0,0,674.181,513.009Z" fill="#ffe607" opacity="0.4"/>
    <path id="Path_15" data-name="Path 15" d="M461.181,575.009a9.5,9.5,0,1,0-9.5-9.5A9.5,9.5,0,0,0,461.181,575.009Z" fill="#ffe607" opacity="0.4"/>
    <path id="Path_16" data-name="Path 16" d="M429.181,452.009a12.5,12.5,0,1,0-12.5-12.5A12.5,12.5,0,0,0,429.181,452.009Z" fill="#ffe607" opacity="0.4"/>
    <path id="Path_17" data-name="Path 17" d="M608.181,186.509a13,13,0,1,0-13-13A13,13,0,0,0,608.181,186.509Z" fill="#ffe607"/>
    <path id="Path_18" data-name="Path 18" d="M523.714,408.974,512.693,410.2s-4.9,22.041,0,51.429S523.714,520.4,523.714,520.4s4.9,95.511,7.347,96.735,24.49,8.572,25.714,1.225S558,443.26,558,443.26l17.143,80.817s2.449,101.634,7.347,101.634,20.816-1.225,20.816-9.8,3.674-121.226,3.674-121.226-1.225-83.266-6.123-85.715S523.714,408.974,523.714,408.974Z" fill="#2f2e41"/>
    <path id="Path_19" data-name="Path 19" d="M533.51,613.466s-11.021-1.225-13.47,0-6.122,9.8,0,14.694,22.041,12.245,26.939,12.245a25.344,25.344,0,0,0,9.8-2.449l-2.449-20.817Z" fill="#2f2e41"/>
    <path id="Path_20" data-name="Path 20" d="M582.49,619.588l1.224,17.143s15.919,2.449,17.143,0,13.47-8.571,14.694-9.8,2.449-14.693-4.9-15.918-9.8,2.449-9.8,2.449Z" fill="#2f2e41"/>
    <path id="Path_21" data-name="Path 21" d="M479.632,306.116s-29.388,28.164-25.715,42.858,33.062,57.551,33.062,57.551,28.163,14.694,31.837,0-19.592-11.02-19.592-11.02l-18.368-44.082,20.817-29.388Z" fill="#ffb8b8"/>
    <path id="Path_22" data-name="Path 22" d="M610.945,263.269s26.772-17.216,26.152-29.043-16.758-49.12-16.758-49.12-12.626-26.249-17.645-15.522,6.6,22.147,6.6,22.147l7.5,36.582-20.376,19.439Z" fill="#ffb8b8"/>
    <path id="Path_23" data-name="Path 23" d="M544.53,238.769a22.041,22.041,0,1,0-22.041-22.041A22.041,22.041,0,0,0,544.53,238.769Z" fill="#ffb8b8"/>
    <path id="Path_24" data-name="Path 24" d="M533.51,230.2l3.673,23.266,26.939-4.9S562.9,225.3,562.9,222.85,533.51,230.2,533.51,230.2Z" fill="#ffb8b8"/>
    <path id="Path_25" data-name="Path 25" d="M532.285,253.463s30.613-7.347,34.286-4.9,22.041,4.9,22.041,4.9L609.429,285.3l-6.123,40.408s-1.224,64.9,1.225,75.919,15.918,12.245-12.245,14.694-33.062-1.224-52.654,3.674-35.51-2.449-30.612-7.347,13.469-83.266,3.673-90.613-13.469-45.307-13.469-45.307S532.285,259.585,532.285,253.463Z" fill="#d0cde1"/>
    <path id="Path_26" data-name="Path 26" d="M584.939,257.136l3.673-3.673,7.347-7.347s23.878,10.408,22.654,14.081-9.184,25.1-9.184,25.1l-11.021,3.673Z" fill="#d0cde1"/>
    <path id="Path_27" data-name="Path 27" d="M513.918,279.177l-14.694-2.449S488.2,288.973,484.53,293.871s-11.021,17.143-11.021,17.143l25.715,18.368,19.592-20.817Z" fill="#d0cde1"/>
    <path id="Path_28" data-name="Path 28" d="M552.222,190.025,552,188.259a13.886,13.886,0,0,0-4.411.693,7.256,7.256,0,0,1,.273-3.173,14.1,14.1,0,0,0-4.083,1.775l-.891-3.222-12.241,6.033c-4.394,2.165-9.027,4.545-11.539,8.751-2.8,4.689-2.313,10.714-.4,15.829s5.1,9.642,7.645,14.471a36.145,36.145,0,0,0,3.474,5.914c4.621,5.76,13.615,6.923,20.129,3.447a11.651,11.651,0,0,0,5.578-5.74,37.2,37.2,0,0,0,1.114-4.753c.806-3.292,1.742-10.086,4.415-12.169,1.177-.916,3.509,2.122,4.484.993,2.505-2.9,1.979-7.371.423-10.873a79.275,79.275,0,0,0-5.223-10.188C559.905,194.734,552.2,189.813,552.222,190.025Z" fill="#2f2e41"/>
    <path id="Path_29" data-name="Path 29" d="M76.681,115.009h-64v64h64Z" fill="#3f3d56"/>
  </g>
</svg>
